<!DOCTYPE svg PUBLIC "-//W3C//DTD SVG 1.1//EN" "http://www.w3.org/Graphics/SVG/1.1/DTD/svg11.dtd">
<!-- Uploaded to: SVG Repo, www.svgrepo.com, Transformed by: SVG Repo Mixer Tools -->
<svg fill="#ffffff" width="800px" height="800px" viewBox="0 0 24 24" id="youtube" data-name="Flat Color" xmlns="http://www.w3.org/2000/svg" class="icon flat-color" stroke="#ffffff">
<g id="SVGRepo_bgCarrier" stroke-width="0"/>
<g id="SVGRepo_tracerCarrier" stroke-linecap="round" stroke-linejoin="round"/>
<g id="SVGRepo_iconCarrier">
<path id="primary" d="M18.31,4.21C16.42,4.07,14.29,4,12,4s-4.42.07-6.31.21A4,4,0,0,0,2,8.2v7.6a4,4,0,0,0,3.69,4c1.89.14,4,.21,6.31.21s4.42-.07,6.31-.21a4,4,0,0,0,3.69-4V8.2A4,4,0,0,0,18.31,4.21Z" style="fill: #ffffff;"/>
<path id="secondary" d="M10,9.88v4.24a.5.5,0,0,0,.76.43l3.53-2.12a.51.51,0,0,0,0-.86L10.76,9.45A.5.5,0,0,0,10,9.88Z" style="fill: #161717;"/>
</g>
</svg>